<svg width="126" height="20" viewBox="0 0 126 20" fill="none" xmlns="http://www.w3.org/2000/svg">
<path d="M117.601 19.9538C116.971 19.9538 116.406 19.8952 115.907 19.7778V17.9518C116.127 18.0105 116.369 18.0545 116.633 18.0838C116.912 18.1278 117.176 18.1498 117.425 18.1498C117.983 18.1498 118.371 18.0398 118.591 17.8198C118.811 17.5998 119.031 17.2112 119.251 16.6538L119.735 15.3778L115.555 4.83984H117.623L120.593 12.9798L123.453 4.83984H125.477L120.945 17.2478C120.623 18.1425 120.212 18.8172 119.713 19.2718C119.229 19.7265 118.525 19.9538 117.601 19.9538Z" fill="white"/>
<path d="M108.298 15.3999V4.83993H110.102L110.212 6.48993C110.505 5.91793 110.945 5.45593 111.532 5.10393C112.133 4.75193 112.778 4.57593 113.468 4.57593C113.702 4.57593 113.922 4.59059 114.128 4.61993C114.333 4.64926 114.509 4.67859 114.656 4.70793V6.62193C114.494 6.57793 114.289 6.54126 114.04 6.51193C113.79 6.48259 113.519 6.46793 113.226 6.46793C112.404 6.46793 111.708 6.73926 111.136 7.28193C110.564 7.80993 110.278 8.5066 110.278 9.37193V15.3999H108.298Z" fill="white"/>
<path d="M100.904 15.6419C99.9357 15.6419 99.0704 15.4146 98.3077 14.9599C97.5597 14.4906 96.9657 13.8379 96.5257 13.0019C96.1004 12.1659 95.8877 11.1979 95.8877 10.0979C95.8877 8.99793 96.1004 8.03726 96.5257 7.21593C96.9657 6.37993 97.5597 5.73459 98.3077 5.27993C99.0704 4.81059 99.9357 4.57593 100.904 4.57593C101.872 4.57593 102.73 4.81059 103.478 5.27993C104.24 5.73459 104.834 6.37993 105.26 7.21593C105.7 8.03726 105.92 8.99793 105.92 10.0979C105.92 11.1979 105.7 12.1659 105.26 13.0019C104.834 13.8379 104.24 14.4906 103.478 14.9599C102.73 15.4146 101.872 15.6419 100.904 15.6419ZM100.904 13.8379C101.798 13.8379 102.524 13.5079 103.082 12.8479C103.654 12.1733 103.94 11.2566 103.94 10.0979C103.94 8.93926 103.654 8.02993 103.082 7.36993C102.524 6.70993 101.798 6.37993 100.904 6.37993C100.009 6.37993 99.2757 6.70993 98.7037 7.36993C98.1464 8.02993 97.8677 8.93926 97.8677 10.0979C97.8677 11.2566 98.1464 12.1733 98.7037 12.8479C99.2757 13.5079 100.009 13.8379 100.904 13.8379Z" fill="white"/>
<path d="M92.3048 15.6419C91.3074 15.6419 90.5521 15.4512 90.0388 15.0699C89.5254 14.6739 89.2688 13.9259 89.2688 12.8259V6.55591H87.1348V4.83991H89.2688V1.05591H91.2268V4.83991H94.2848V6.55591H91.2268V12.4079C91.2268 12.9799 91.3514 13.3686 91.6008 13.5739C91.8648 13.7646 92.2534 13.8599 92.7668 13.8599C93.0308 13.8599 93.3021 13.8232 93.5808 13.7499C93.8741 13.6619 94.1088 13.5739 94.2848 13.4859V15.3119C94.0501 15.4146 93.7494 15.4952 93.3828 15.5539C93.0161 15.6126 92.6568 15.6419 92.3048 15.6419Z" fill="white"/>
<path d="M81.7826 15.6419C80.8146 15.6419 79.9493 15.4146 79.1866 14.9599C78.4386 14.4906 77.8446 13.8453 77.4046 13.0239C76.9793 12.1879 76.7666 11.2199 76.7666 10.1199C76.7666 9.01993 76.9793 8.05193 77.4046 7.21593C77.8446 6.37993 78.4386 5.73459 79.1866 5.27993C79.9493 4.81059 80.8146 4.57593 81.7826 4.57593C82.5893 4.57593 83.3299 4.74459 84.0046 5.08193C84.6793 5.40459 85.2439 5.88126 85.6986 6.51193L84.1366 7.67793C83.5939 6.81259 82.8093 6.37993 81.7826 6.37993C80.8879 6.37993 80.1546 6.70993 79.5826 7.36993C79.0253 8.02993 78.7466 8.94659 78.7466 10.1199C78.7466 11.2786 79.0253 12.1879 79.5826 12.8479C80.1546 13.5079 80.8879 13.8379 81.7826 13.8379C82.8093 13.8379 83.6013 13.4126 84.1586 12.5619L85.6986 13.7059C85.2439 14.3366 84.6793 14.8206 84.0046 15.1579C83.3299 15.4806 82.5893 15.6419 81.7826 15.6419Z" fill="white"/>
<path d="M69.1628 15.5759C68.0921 15.6053 67.2048 15.3633 66.5008 14.8499C65.8115 14.3219 65.4668 13.5666 65.4668 12.5839C65.4668 11.8653 65.6941 11.2419 66.1488 10.7139C66.6181 10.1859 67.2121 9.77526 67.9308 9.48193C68.6641 9.17393 69.4195 9.01993 70.1968 9.01993C70.6515 8.99059 71.0695 9.03459 71.4508 9.15193C71.8321 9.25459 72.1621 9.4086 72.4408 9.61393V8.29393C72.4408 7.47259 72.2648 6.93726 71.9128 6.68793C71.5755 6.4386 71.0475 6.31393 70.3288 6.31393C69.7128 6.31393 69.0528 6.42393 68.3488 6.64393C67.6595 6.86393 67.0728 7.14259 66.5888 7.47993L65.6648 5.93993C66.2661 5.55859 66.9775 5.23593 67.7988 4.97193C68.6348 4.70793 69.4781 4.57593 70.3288 4.57593C71.6781 4.57593 72.6828 4.84726 73.3428 5.38993C74.0028 5.91793 74.3328 6.88593 74.3328 8.29393V13.5959C74.3328 13.8746 74.4061 14.0359 74.5528 14.0799C74.6995 14.1239 75.0295 14.0873 75.5428 13.9699V15.2459C75.3521 15.3193 75.1101 15.3926 74.8168 15.4659C74.5235 15.5393 74.2228 15.5759 73.9148 15.5759C73.4455 15.5759 73.1081 15.4879 72.9028 15.3119C72.6975 15.1359 72.5581 14.8206 72.4848 14.3659C72.0888 14.7619 71.5901 15.0553 70.9888 15.2459C70.3875 15.4366 69.7788 15.5466 69.1628 15.5759ZM69.1848 13.8379C69.8008 13.8233 70.3581 13.7353 70.8568 13.5739C71.3701 13.3979 71.7735 13.1559 72.0668 12.8479C72.3601 12.5253 72.4921 12.1439 72.4628 11.7039C72.4335 11.2933 72.2208 10.9999 71.8248 10.8239C71.4435 10.6479 70.9521 10.5746 70.3508 10.6039C69.8081 10.6186 69.3095 10.7213 68.8548 10.9119C68.4001 11.0879 68.0335 11.3226 67.7548 11.6159C67.4908 11.9093 67.3588 12.2393 67.3588 12.6059C67.3735 13.0166 67.5421 13.3319 67.8648 13.5519C68.1875 13.7573 68.6275 13.8526 69.1848 13.8379Z" fill="white"/>
<path d="M53.9258 15.4V0H64.0018V1.892H55.9278V6.578H63.3198V8.492H55.9278V15.4H53.9258Z" fill="white"/>
<path d="M43.3848 15.6419C42.3875 15.6419 41.6322 15.4512 41.1188 15.0699C40.6055 14.6739 40.3488 13.9259 40.3488 12.8259V6.55591H38.2148V4.83991H40.3488V1.05591H42.3068V4.83991H45.3648V6.55591H42.3068V12.4079C42.3068 12.9799 42.4315 13.3686 42.6808 13.5739C42.9448 13.7646 43.3335 13.8599 43.8468 13.8599C44.1108 13.8599 44.3822 13.8232 44.6608 13.7499C44.9542 13.6619 45.1888 13.5739 45.3648 13.4859V15.3119C45.1302 15.4146 44.8295 15.4952 44.4628 15.5539C44.0962 15.6126 43.7368 15.6419 43.3848 15.6419Z" fill="white"/>
<path d="M31.2214 15.5759C30.1507 15.6053 29.2634 15.3633 28.5594 14.8499C27.8701 14.3219 27.5254 13.5666 27.5254 12.5839C27.5254 11.8653 27.7527 11.2419 28.2074 10.7139C28.6767 10.1859 29.2707 9.77526 29.9894 9.48193C30.7227 9.17393 31.4781 9.01993 32.2554 9.01993C32.7101 8.99059 33.1281 9.03459 33.5094 9.15193C33.8907 9.25459 34.2207 9.4086 34.4994 9.61393V8.29393C34.4994 7.47259 34.3234 6.93726 33.9714 6.68793C33.6341 6.4386 33.1061 6.31393 32.3874 6.31393C31.7714 6.31393 31.1114 6.42393 30.4074 6.64393C29.7181 6.86393 29.1314 7.14259 28.6474 7.47993L27.7234 5.93993C28.3247 5.55859 29.0361 5.23593 29.8574 4.97193C30.6934 4.70793 31.5367 4.57593 32.3874 4.57593C33.7367 4.57593 34.7414 4.84726 35.4014 5.38993C36.0614 5.91793 36.3914 6.88593 36.3914 8.29393V13.5959C36.3914 13.8746 36.4647 14.0359 36.6114 14.0799C36.7581 14.1239 37.0881 14.0873 37.6014 13.9699V15.2459C37.4107 15.3193 37.1687 15.3926 36.8754 15.4659C36.5821 15.5393 36.2814 15.5759 35.9734 15.5759C35.5041 15.5759 35.1667 15.4879 34.9614 15.3119C34.7561 15.1359 34.6167 14.8206 34.5434 14.3659C34.1474 14.7619 33.6487 15.0553 33.0474 15.2459C32.4461 15.4366 31.8374 15.5466 31.2214 15.5759ZM31.2434 13.8379C31.8594 13.8233 32.4167 13.7353 32.9154 13.5739C33.4287 13.3979 33.8321 13.1559 34.1254 12.8479C34.4187 12.5253 34.5507 12.1439 34.5214 11.7039C34.4921 11.2933 34.2794 10.9999 33.8834 10.8239C33.5021 10.6479 33.0107 10.5746 32.4094 10.6039C31.8667 10.6186 31.3681 10.7213 30.9134 10.9119C30.4587 11.0879 30.0921 11.3226 29.8134 11.6159C29.5494 11.9093 29.4174 12.2393 29.4174 12.6059C29.4321 13.0166 29.6007 13.3319 29.9234 13.5519C30.2461 13.7573 30.6861 13.8526 31.2434 13.8379Z" fill="white"/>
<path d="M21.2621 15.6419C20.2648 15.6419 19.3848 15.4293 18.6221 15.0039C17.8595 14.5786 17.2655 13.9553 16.8401 13.1339C16.4148 12.2979 16.2021 11.2933 16.2021 10.1199C16.2021 8.99059 16.4148 8.01526 16.8401 7.19393C17.2655 6.35793 17.8448 5.71259 18.5781 5.25793C19.3261 4.80326 20.1841 4.57593 21.1521 4.57593C22.1201 4.57593 22.9415 4.81793 23.6161 5.30193C24.3055 5.77126 24.8261 6.40193 25.1781 7.19393C25.5448 7.98593 25.7281 8.85126 25.7281 9.78993V10.3179H18.1381C18.1675 11.4913 18.4608 12.3859 19.0181 13.0019C19.5901 13.6033 20.3455 13.9039 21.2841 13.9039C22.0321 13.9039 22.6481 13.7206 23.1321 13.3539C23.6308 12.9873 24.0488 12.4373 24.3861 11.7039L25.8821 12.6939C25.3835 13.7206 24.7455 14.4686 23.9681 14.9379C23.2055 15.4073 22.3035 15.6419 21.2621 15.6419ZM18.2481 8.73393H23.7921C23.6748 7.97126 23.3815 7.35526 22.9121 6.88593C22.4428 6.41659 21.8488 6.18193 21.1301 6.18193C20.3675 6.18193 19.7368 6.40193 19.2381 6.84193C18.7395 7.26726 18.4095 7.89793 18.2481 8.73393Z" fill="white"/>
<path d="M0 15.4V0H2.002L6.798 7.634L11.572 0H13.618V15.4H11.55V3.498L7.37 10.274H6.226L2.024 3.498V15.4H0Z" fill="white"/>
</svg>
